# Blender 4.4.3
# www.blender.org
mtllib curve90right.mtl
o Road45.005
v -10.000000 0.000003 0.000000
v 10.000000 0.000001 0.000000
v -10.000000 0.500003 0.000000
v 10.000000 0.500001 0.000000
v -9.963863 0.000003 -1.472030
v 10.012046 0.000001 -0.490677
v -9.963863 0.500003 -1.472030
v 10.012046 0.500001 -0.490677
v -9.855541 0.000003 -2.940514
v 10.048153 0.000001 -0.980171
v -9.855541 0.500003 -2.940514
v 10.048153 0.500001 -0.980171
v -9.675295 0.000003 -4.401914
v 10.108235 0.000001 -1.467305
v -9.675295 0.500003 -4.401914
v 10.108235 0.500001 -1.467305
v -9.423559 0.000003 -5.852710
v 10.192147 0.000001 -1.950903
v -9.423559 0.500003 -5.852710
v 10.192147 0.500001 -1.950903
v -9.100937 0.000003 -7.289405
v 10.299687 0.000001 -2.429802
v -9.100937 0.500003 -7.289405
v 10.299687 0.500001 -2.429802
v -8.708210 0.000003 -8.708540
v 10.430596 0.000001 -2.902847
v -8.708210 0.500003 -8.708540
v 10.430596 0.500001 -2.902847
v -8.246323 0.000002 -10.106695
v 10.584559 0.000001 -3.368899
v -8.246323 0.500002 -10.106695
v 10.584559 0.500001 -3.368899
v -7.716387 0.000002 -11.480503
v 10.761205 0.000001 -3.826834
v -7.716387 0.500002 -11.480503
v 10.761205 0.500001 -3.826834
v -7.119678 0.000002 -12.826653
v 10.960107 0.000001 -4.275551
v -7.119678 0.500002 -12.826653
v 10.960107 0.500001 -4.275551
v -6.457638 0.000002 -14.141902
v 11.180787 0.000001 -4.713967
v -6.457638 0.500002 -14.141902
v 11.180787 0.500001 -4.713967
v -5.731859 0.000002 -15.423082
v 11.422714 0.000001 -5.141027
v -5.731859 0.500002 -15.423082
v 11.422714 0.500001 -5.141027
v -4.944088 0.000002 -16.667107
v 11.685304 0.000001 -5.555702
v -4.944088 0.500002 -16.667107
v 11.685304 0.500001 -5.555702
v -4.096226 0.000002 -17.870979
v 11.967925 0.000001 -5.956993
v -4.096226 0.500002 -17.870979
v 11.967925 0.500001 -5.956993
v -3.190313 0.000002 -19.031799
v 12.269896 0.000001 -6.343933
v -3.190313 0.500002 -19.031799
v 12.269896 0.500001 -6.343933
v -2.228535 0.000002 -20.146769
v 12.590488 0.000001 -6.715590
v -2.228535 0.500002 -20.146769
v 12.590488 0.500001 -6.715590
v -1.213203 0.000002 -21.213203
v 12.928932 0.000001 -7.071068
v -1.213203 0.500002 -21.213203
v 12.928932 0.500001 -7.071068
v -0.146769 0.000002 -22.228535
v 13.284410 0.000001 -7.409511
v -0.146769 0.500002 -22.228535
v 13.284410 0.500001 -7.409511
v 0.968201 0.000002 -23.190313
v 13.656067 0.000001 -7.730104
v 0.968201 0.500002 -23.190313
v 13.656067 0.500001 -7.730104
v 2.129021 0.000002 -24.096226
v 14.043007 0.000001 -8.032075
v 2.129021 0.500002 -24.096226
v 14.043007 0.500001 -8.032075
v 3.332893 0.000001 -24.944088
v 14.444298 0.000000 -8.314696
v 3.332893 0.500001 -24.944088
v 14.444298 0.500000 -8.314696
v 4.576918 0.000001 -25.731859
v 14.858973 0.000000 -8.577286
v 4.576918 0.500001 -25.731859
v 14.858973 0.500000 -8.577286
v 5.858098 0.000001 -26.457638
v 15.286033 0.000000 -8.819213
v 5.858098 0.500001 -26.457638
v 15.286033 0.500000 -8.819213
v 7.173347 0.000001 -27.119678
v 15.724449 0.000000 -9.039893
v 7.173347 0.500001 -27.119678
v 15.724449 0.500000 -9.039893
v 8.519497 0.000001 -27.716387
v 16.173166 0.000000 -9.238795
v 8.519497 0.500001 -27.716387
v 16.173166 0.500000 -9.238795
v 9.893305 0.000001 -28.246323
v 16.631102 0.000000 -9.415441
v 9.893305 0.500001 -28.246323
v 16.631102 0.500000 -9.415441
v 11.291460 0.000001 -28.708210
v 17.097153 0.000000 -9.569404
v 11.291460 0.500001 -28.708210
v 17.097153 0.500000 -9.569404
v 12.710594 0.000001 -29.100937
v 17.570198 0.000000 -9.700313
v 12.710594 0.500001 -29.100937
v 17.570198 0.500000 -9.700313
v 14.147290 0.000001 -29.423559
v 18.049097 0.000000 -9.807853
v 14.147290 0.500001 -29.423559
v 18.049097 0.500000 -9.807853
v 15.598085 0.000000 -29.675295
v 18.532696 0.000000 -9.891765
v 15.598085 0.500000 -29.675295
v 18.532696 0.500000 -9.891765
v 17.059486 0.000000 -29.855541
v 19.019829 0.000000 -9.951847
v 17.059486 0.500000 -29.855541
v 19.019829 0.500000 -9.951847
v 18.527969 0.000000 -29.963863
v 19.509323 0.000000 -9.987954
v 18.527969 0.500000 -29.963863
v 19.509323 0.500000 -9.987954
v 20.000000 0.000000 -30.000000
v 20.000000 0.000000 -10.000000
v 20.000000 0.500000 -30.000000
v 20.000000 0.500000 -10.000000
vn -0.0000 1.0000 -0.0000
vn -0.0000 -1.0000 -0.0000
vn 0.9997 -0.0000 0.0245
vn -0.9997 -0.0000 -0.0245
vn 0.9973 -0.0000 0.0736
vn -0.9973 -0.0000 -0.0736
vn 0.9925 -0.0000 0.1224
vn -0.9925 -0.0000 -0.1224
vn 0.9853 -0.0000 0.1710
vn -0.9853 -0.0000 -0.1710
vn 0.9757 -0.0000 0.2191
vn -0.9757 -0.0000 -0.2191
vn 0.9638 -0.0000 0.2667
vn -0.9638 -0.0000 -0.2667
vn 0.9495 -0.0000 0.3137
vn -0.9495 -0.0000 -0.3137
vn 0.9330 -0.0000 0.3599
vn -0.9330 -0.0000 -0.3599
vn 0.9142 -0.0000 0.4052
vn -0.9142 -0.0000 -0.4052
vn 0.8932 -0.0000 0.4496
vn -0.8932 -0.0000 -0.4496
vn 0.8701 -0.0000 0.4929
vn -0.8701 -0.0000 -0.4929
vn 0.8449 -0.0000 0.5350
vn -0.8449 -0.0000 -0.5350
vn 0.8176 -0.0000 0.5758
vn -0.8176 -0.0000 -0.5758
vn 0.7883 -0.0000 0.6152
vn -0.7883 -0.0000 -0.6152
vn 0.7572 -0.0000 0.6532
vn -0.7572 -0.0000 -0.6532
vn 0.7242 -0.0000 0.6895
vn -0.7242 -0.0000 -0.6895
vn 0.6895 -0.0000 0.7242
vn -0.6895 -0.0000 -0.7242
vn 0.6532 -0.0000 0.7572
vn -0.6532 -0.0000 -0.7572
vn 0.6152 -0.0000 0.7883
vn -0.6152 -0.0000 -0.7883
vn 0.5758 -0.0000 0.8176
vn -0.5758 -0.0000 -0.8176
vn 0.5350 -0.0000 0.8449
vn -0.5350 -0.0000 -0.8449
vn 0.4929 -0.0000 0.8701
vn -0.4929 -0.0000 -0.8701
vn 0.4496 -0.0000 0.8932
vn -0.4496 -0.0000 -0.8932
vn 0.4052 -0.0000 0.9142
vn -0.4052 -0.0000 -0.9142
vn 0.3599 -0.0000 0.9330
vn -0.3599 -0.0000 -0.9330
vn 0.3137 -0.0000 0.9495
vn -0.3137 -0.0000 -0.9495
vn 0.2667 -0.0000 0.9638
vn -0.2667 -0.0000 -0.9638
vn 0.2191 -0.0000 0.9757
vn -0.2191 -0.0000 -0.9757
vn 0.1710 -0.0000 0.9853
vn -0.1710 -0.0000 -0.9853
vn 0.1224 -0.0000 0.9925
vn -0.1224 -0.0000 -0.9925
vn 0.0736 -0.0000 0.9973
vn -0.0736 -0.0000 -0.9973
vn 0.0245 -0.0000 0.9997
vn -0.0245 -0.0000 -0.9997
s 0
f 1//1 2//1 6//1 5//1
f 3//2 7//2 8//2 4//2
f 1//3 5//3 7//3 3//3
f 2//4 4//4 8//4 6//4
f 5//1 6//1 10//1 9//1
f 7//2 11//2 12//2 8//2
f 5//5 9//5 11//5 7//5
f 6//6 8//6 12//6 10//6
f 9//1 10//1 14//1 13//1
f 11//2 15//2 16//2 12//2
f 9//7 13//7 15//7 11//7
f 10//8 12//8 16//8 14//8
f 13//1 14//1 18//1 17//1
f 15//2 19//2 20//2 16//2
f 13//9 17//9 19//9 15//9
f 14//10 16//10 20//10 18//10
f 17//1 18//1 22//1 21//1
f 19//2 23//2 24//2 20//2
f 17//11 21//11 23//11 19//11
f 18//12 20//12 24//12 22//12
f 21//1 22//1 26//1 25//1
f 23//2 27//2 28//2 24//2
f 21//13 25//13 27//13 23//13
f 22//14 24//14 28//14 26//14
f 25//1 26//1 30//1 29//1
f 27//2 31//2 32//2 28//2
f 25//15 29//15 31//15 27//15
f 26//16 28//16 32//16 30//16
f 29//1 30//1 34//1 33//1
f 31//2 35//2 36//2 32//2
f 29//17 33//17 35//17 31//17
f 30//18 32//18 36//18 34//18
f 33//1 34//1 38//1 37//1
f 35//2 39//2 40//2 36//2
f 33//19 37//19 39//19 35//19
f 34//20 36//20 40//20 38//20
f 37//1 38//1 42//1 41//1
f 39//2 43//2 44//2 40//2
f 37//21 41//21 43//21 39//21
f 38//22 40//22 44//22 42//22
f 41//1 42//1 46//1 45//1
f 43//2 47//2 48//2 44//2
f 41//23 45//23 47//23 43//23
f 42//24 44//24 48//24 46//24
f 45//1 46//1 50//1 49//1
f 47//2 51//2 52//2 48//2
f 45//25 49//25 51//25 47//25
f 46//26 48//26 52//26 50//26
f 49//1 50//1 54//1 53//1
f 51//2 55//2 56//2 52//2
f 49//27 53//27 55//27 51//27
f 50//28 52//28 56//28 54//28
f 53//1 54//1 58//1 57//1
f 55//2 59//2 60//2 56//2
f 53//29 57//29 59//29 55//29
f 54//30 56//30 60//30 58//30
f 57//1 58//1 62//1 61//1
f 59//2 63//2 64//2 60//2
f 57//31 61//31 63//31 59//31
f 58//32 60//32 64//32 62//32
f 61//1 62//1 66//1 65//1
f 63//2 67//2 68//2 64//2
f 61//33 65//33 67//33 63//33
f 62//34 64//34 68//34 66//34
f 65//1 66//1 70//1 69//1
f 67//2 71//2 72//2 68//2
f 65//35 69//35 71//35 67//35
f 66//36 68//36 72//36 70//36
f 69//1 70//1 74//1 73//1
f 71//2 75//2 76//2 72//2
f 69//37 73//37 75//37 71//37
f 70//38 72//38 76//38 74//38
f 73//1 74//1 78//1 77//1
f 75//2 79//2 80//2 76//2
f 73//39 77//39 79//39 75//39
f 74//40 76//40 80//40 78//40
f 77//1 78//1 82//1 81//1
f 79//2 83//2 84//2 80//2
f 77//41 81//41 83//41 79//41
f 78//42 80//42 84//42 82//42
f 81//1 82//1 86//1 85//1
f 83//2 87//2 88//2 84//2
f 81//43 85//43 87//43 83//43
f 82//44 84//44 88//44 86//44
f 85//1 86//1 90//1 89//1
f 87//2 91//2 92//2 88//2
f 85//45 89//45 91//45 87//45
f 86//46 88//46 92//46 90//46
f 89//1 90//1 94//1 93//1
f 91//2 95//2 96//2 92//2
f 89//47 93//47 95//47 91//47
f 90//48 92//48 96//48 94//48
f 93//1 94//1 98//1 97//1
f 95//2 99//2 100//2 96//2
f 93//49 97//49 99//49 95//49
f 94//50 96//50 100//50 98//50
f 97//1 98//1 102//1 101//1
f 99//2 103//2 104//2 100//2
f 97//51 101//51 103//51 99//51
f 98//52 100//52 104//52 102//52
f 101//1 102//1 106//1 105//1
f 103//2 107//2 108//2 104//2
f 101//53 105//53 107//53 103//53
f 102//54 104//54 108//54 106//54
f 105//1 106//1 110//1 109//1
f 107//2 111//2 112//2 108//2
f 105//55 109//55 111//55 107//55
f 106//56 108//56 112//56 110//56
f 109//1 110//1 114//1 113//1
f 111//2 115//2 116//2 112//2
f 109//57 113//57 115//57 111//57
f 110//58 112//58 116//58 114//58
f 113//1 114//1 118//1 117//1
f 115//2 119//2 120//2 116//2
f 113//59 117//59 119//59 115//59
f 114//60 116//60 120//60 118//60
f 117//1 118//1 122//1 121//1
f 119//2 123//2 124//2 120//2
f 117//61 121//61 123//61 119//61
f 118//62 120//62 124//62 122//62
f 121//1 122//1 126//1 125//1
f 123//2 127//2 128//2 124//2
f 121//63 125//63 127//63 123//63
f 122//64 124//64 128//64 126//64
f 125//1 126//1 130//1 129//1
f 127//2 131//2 132//2 128//2
f 125//65 129//65 131//65 127//65
f 126//66 128//66 132//66 130//66
