# Blender 4.4.3
# www.blender.org
mtllib curve45left.mtl
o Road45
v -0.000001 0.000000 10.000000
v -0.000000 0.000000 -10.000000
v -0.000001 -0.500000 10.000000
v -0.000000 -0.500000 -10.000000
v 0.736236 0.000000 9.990965
v 0.245412 0.000000 -10.003012
v 0.736236 -0.500000 9.990965
v 0.245412 -0.500000 -10.003012
v 1.472029 0.000000 9.963863
v 0.490676 0.000000 -10.012046
v 1.472029 -0.500000 9.963863
v 0.490676 -0.500000 -10.012046
v 2.206936 0.000000 9.918715
v 0.735645 0.000000 -10.027096
v 2.206936 -0.500000 9.918715
v 0.735645 -0.500000 -10.027096
v 2.940513 0.000000 9.855541
v 0.980171 0.000000 -10.048153
v 2.940513 -0.500000 9.855541
v 0.980171 -0.500000 -10.048153
v 3.672319 0.000000 9.774385
v 1.224106 0.000000 -10.075205
v 3.672319 -0.500000 9.774385
v 1.224106 -0.500000 -10.075205
v 4.401913 0.000000 9.675295
v 1.467304 0.000000 -10.108235
v 4.401913 -0.500000 9.675295
v 1.467304 -0.500000 -10.108235
v 5.128855 0.000000 9.558329
v 1.709618 0.000000 -10.147223
v 5.128855 -0.500000 9.558329
v 1.709618 -0.500000 -10.147223
v 5.852708 0.000000 9.423559
v 1.950903 0.000000 -10.192147
v 5.852708 -0.500000 9.423559
v 1.950903 -0.500000 -10.192147
v 6.573036 0.000000 9.271065
v 2.191012 0.000000 -10.242979
v 6.573036 -0.500000 9.271065
v 2.191012 -0.500000 -10.242979
v 7.289404 0.000000 9.100937
v 2.429801 0.000000 -10.299687
v 7.289404 -0.500000 9.100937
v 2.429801 -0.500000 -10.299687
v 8.001382 0.000000 8.913282
v 2.667127 0.000000 -10.362239
v 8.001382 -0.500000 8.913282
v 2.667127 -0.500000 -10.362239
v 8.708539 0.000000 8.708210
v 2.902846 0.000000 -10.430596
v 8.708539 -0.500000 8.708210
v 2.902846 -0.500000 -10.430596
v 9.410451 0.000000 8.485846
v 3.136817 0.000000 -10.504718
v 9.410451 -0.500000 8.485846
v 3.136817 -0.500000 -10.504718
v 10.106694 0.000000 8.246323
v 3.368898 0.000000 -10.584559
v 10.106694 -0.500000 8.246323
v 3.368898 -0.500000 -10.584559
v 10.796850 0.000000 7.989784
v 3.598950 0.000000 -10.670072
v 10.796850 -0.500000 7.989784
v 3.598950 -0.500000 -10.670072
v 11.480502 0.000000 7.716387
v 3.826834 0.000000 -10.761205
v 11.480502 -0.500000 7.716387
v 3.826834 -0.500000 -10.761205
v 12.157238 0.000000 7.426292
v 4.052413 0.000000 -10.857903
v 12.157238 -0.500000 7.426292
v 4.052413 -0.500000 -10.857903
v 12.826652 0.000000 7.119678
v 4.275550 0.000000 -10.960107
v 12.826652 -0.500000 7.119678
v 4.275550 -0.500000 -10.960107
v 13.488338 0.000000 6.796728
v 4.496113 0.000000 -11.067757
v 13.488338 -0.500000 6.796728
v 4.496113 -0.500000 -11.067757
v 14.141901 0.000000 6.457638
v 4.713967 0.000000 -11.180787
v 14.141901 -0.500000 6.457638
v 4.713967 -0.500000 -11.180787
v 14.786944 0.000000 6.102610
v 4.928981 0.000000 -11.299130
v 14.786944 -0.500000 6.102610
v 4.928981 -0.500000 -11.299130
v 15.423081 0.000000 5.731859
v 5.141027 0.000000 -11.422714
v 15.423081 -0.500000 5.731859
v 5.141027 -0.500000 -11.422714
v 16.049927 0.000000 5.345608
v 5.349976 0.000000 -11.551464
v 16.049927 -0.500000 5.345608
v 5.349976 -0.500000 -11.551464
v 16.667105 0.000000 4.944088
v 5.555702 0.000000 -11.685304
v 16.667105 -0.500000 4.944088
v 5.555702 -0.500000 -11.685304
v 17.274244 0.000000 4.527544
v 5.758081 0.000000 -11.824152
v 17.274244 -0.500000 4.527544
v 5.758081 -0.500000 -11.824152
v 17.870977 0.000000 4.096226
v 5.956993 0.000000 -11.967925
v 17.870977 -0.500000 4.096226
v 5.956993 -0.500000 -11.967925
v 18.456945 0.000000 3.650393
v 6.152316 0.000000 -12.116535
v 18.456945 -0.500000 3.650393
v 6.152316 -0.500000 -12.116535
v 19.031797 0.000000 3.190313
v 6.343932 0.000000 -12.269896
v 19.031797 -0.500000 3.190313
v 6.343932 -0.500000 -12.269896
v 19.595184 0.000000 2.716265
v 6.531728 0.000000 -12.427912
v 19.595184 -0.500000 2.716265
v 6.531728 -0.500000 -12.427912
v 20.146767 0.000000 2.228535
v 6.715589 0.000000 -12.590488
v 20.146767 -0.500000 2.228535
v 6.715589 -0.500000 -12.590488
v 20.686216 0.000000 1.727413
v 6.895405 0.000000 -12.757528
v 20.686216 -0.500000 1.727413
v 6.895405 -0.500000 -12.757528
v 21.213203 0.000000 1.213203
v 7.071067 0.000000 -12.928932
v 21.213203 -0.500000 1.213203
v 7.071067 -0.500000 -12.928932
vn -0.0000 -1.0000 -0.0000
vn -0.0000 1.0000 -0.0000
vn -0.0123 -0.0000 -0.9999
vn 0.0123 -0.0000 0.9999
vn -0.0368 -0.0000 -0.9993
vn 0.0368 -0.0000 0.9993
vn -0.0613 -0.0000 -0.9981
vn 0.0613 -0.0000 0.9981
vn -0.0858 -0.0000 -0.9963
vn 0.0858 -0.0000 0.9963
vn -0.1102 -0.0000 -0.9939
vn 0.1102 -0.0000 0.9939
vn -0.1346 -0.0000 -0.9909
vn 0.1346 -0.0000 0.9909
vn -0.1589 -0.0000 -0.9873
vn 0.1589 -0.0000 0.9873
vn -0.1830 -0.0000 -0.9831
vn 0.1830 -0.0000 0.9831
vn -0.2071 -0.0000 -0.9783
vn 0.2071 -0.0000 0.9783
vn -0.2311 -0.0000 -0.9729
vn 0.2311 -0.0000 0.9729
vn -0.2549 -0.0000 -0.9670
vn 0.2549 -0.0000 0.9670
vn -0.2785 -0.0000 -0.9604
vn 0.2785 -0.0000 0.9604
vn -0.3020 -0.0000 -0.9533
vn 0.3020 -0.0000 0.9533
vn -0.3253 -0.0000 -0.9456
vn 0.3253 -0.0000 0.9456
vn -0.3484 -0.0000 -0.9373
vn 0.3484 -0.0000 0.9373
vn -0.3713 -0.0000 -0.9285
vn 0.3713 -0.0000 0.9285
vn -0.3940 -0.0000 -0.9191
vn 0.3940 -0.0000 0.9191
vn -0.4164 -0.0000 -0.9092
vn 0.4164 -0.0000 0.9092
vn -0.4386 -0.0000 -0.8987
vn 0.4386 -0.0000 0.8987
vn -0.4605 -0.0000 -0.8876
vn 0.4605 -0.0000 0.8876
vn -0.4822 -0.0000 -0.8761
vn 0.4822 -0.0000 0.8761
vn -0.5035 -0.0000 -0.8640
vn 0.5035 -0.0000 0.8640
vn -0.5246 -0.0000 -0.8514
vn 0.5246 -0.0000 0.8514
vn -0.5453 -0.0000 -0.8382
vn 0.5453 -0.0000 0.8382
vn -0.5657 -0.0000 -0.8246
vn 0.5657 -0.0000 0.8246
vn -0.5858 -0.0000 -0.8105
vn 0.5858 -0.0000 0.8105
vn -0.6055 -0.0000 -0.7958
vn 0.6055 -0.0000 0.7958
vn -0.6249 -0.0000 -0.7807
vn 0.6249 -0.0000 0.7807
vn -0.6438 -0.0000 -0.7652
vn 0.6438 -0.0000 0.7652
vn -0.6624 -0.0000 -0.7491
vn 0.6624 -0.0000 0.7491
vn -0.6806 -0.0000 -0.7327
vn 0.6806 -0.0000 0.7327
vn -0.6984 -0.0000 -0.7157
vn 0.6984 -0.0000 0.7157
s 0
f 1//1 2//1 6//1 5//1
f 3//2 7//2 8//2 4//2
f 1//3 5//3 7//3 3//3
f 2//4 4//4 8//4 6//4
f 5//1 6//1 10//1 9//1
f 7//2 11//2 12//2 8//2
f 5//5 9//5 11//5 7//5
f 6//6 8//6 12//6 10//6
f 9//1 10//1 14//1 13//1
f 11//2 15//2 16//2 12//2
f 9//7 13//7 15//7 11//7
f 10//8 12//8 16//8 14//8
f 13//1 14//1 18//1 17//1
f 15//2 19//2 20//2 16//2
f 13//9 17//9 19//9 15//9
f 14//10 16//10 20//10 18//10
f 17//1 18//1 22//1 21//1
f 19//2 23//2 24//2 20//2
f 17//11 21//11 23//11 19//11
f 18//12 20//12 24//12 22//12
f 21//1 22//1 26//1 25//1
f 23//2 27//2 28//2 24//2
f 21//13 25//13 27//13 23//13
f 22//14 24//14 28//14 26//14
f 25//1 26//1 30//1 29//1
f 27//2 31//2 32//2 28//2
f 25//15 29//15 31//15 27//15
f 26//16 28//16 32//16 30//16
f 29//1 30//1 34//1 33//1
f 31//2 35//2 36//2 32//2
f 29//17 33//17 35//17 31//17
f 30//18 32//18 36//18 34//18
f 33//1 34//1 38//1 37//1
f 35//2 39//2 40//2 36//2
f 33//19 37//19 39//19 35//19
f 34//20 36//20 40//20 38//20
f 37//1 38//1 42//1 41//1
f 39//2 43//2 44//2 40//2
f 37//21 41//21 43//21 39//21
f 38//22 40//22 44//22 42//22
f 41//1 42//1 46//1 45//1
f 43//2 47//2 48//2 44//2
f 41//23 45//23 47//23 43//23
f 42//24 44//24 48//24 46//24
f 45//1 46//1 50//1 49//1
f 47//2 51//2 52//2 48//2
f 45//25 49//25 51//25 47//25
f 46//26 48//26 52//26 50//26
f 49//1 50//1 54//1 53//1
f 51//2 55//2 56//2 52//2
f 49//27 53//27 55//27 51//27
f 50//28 52//28 56//28 54//28
f 53//1 54//1 58//1 57//1
f 55//2 59//2 60//2 56//2
f 53//29 57//29 59//29 55//29
f 54//30 56//30 60//30 58//30
f 57//1 58//1 62//1 61//1
f 59//2 63//2 64//2 60//2
f 57//31 61//31 63//31 59//31
f 58//32 60//32 64//32 62//32
f 61//1 62//1 66//1 65//1
f 63//2 67//2 68//2 64//2
f 61//33 65//33 67//33 63//33
f 62//34 64//34 68//34 66//34
f 65//1 66//1 70//1 69//1
f 67//2 71//2 72//2 68//2
f 65//35 69//35 71//35 67//35
f 66//36 68//36 72//36 70//36
f 69//1 70//1 74//1 73//1
f 71//2 75//2 76//2 72//2
f 69//37 73//37 75//37 71//37
f 70//38 72//38 76//38 74//38
f 73//1 74//1 78//1 77//1
f 75//2 79//2 80//2 76//2
f 73//39 77//39 79//39 75//39
f 74//40 76//40 80//40 78//40
f 77//1 78//1 82//1 81//1
f 79//2 83//2 84//2 80//2
f 77//41 81//41 83//41 79//41
f 78//42 80//42 84//42 82//42
f 81//1 82//1 86//1 85//1
f 83//2 87//2 88//2 84//2
f 81//43 85//43 87//43 83//43
f 82//44 84//44 88//44 86//44
f 85//1 86//1 90//1 89//1
f 87//2 91//2 92//2 88//2
f 85//45 89//45 91//45 87//45
f 86//46 88//46 92//46 90//46
f 89//1 90//1 94//1 93//1
f 91//2 95//2 96//2 92//2
f 89//47 93//47 95//47 91//47
f 90//48 92//48 96//48 94//48
f 93//1 94//1 98//1 97//1
f 95//2 99//2 100//2 96//2
f 93//49 97//49 99//49 95//49
f 94//50 96//50 100//50 98//50
f 97//1 98//1 102//1 101//1
f 99//2 103//2 104//2 100//2
f 97//51 101//51 103//51 99//51
f 98//52 100//52 104//52 102//52
f 101//1 102//1 106//1 105//1
f 103//2 107//2 108//2 104//2
f 101//53 105//53 107//53 103//53
f 102//54 104//54 108//54 106//54
f 105//1 106//1 110//1 109//1
f 107//2 111//2 112//2 108//2
f 105//55 109//55 111//55 107//55
f 106//56 108//56 112//56 110//56
f 109//1 110//1 114//1 113//1
f 111//2 115//2 116//2 112//2
f 109//57 113//57 115//57 111//57
f 110//58 112//58 116//58 114//58
f 113//1 114//1 118//1 117//1
f 115//2 119//2 120//2 116//2
f 113//59 117//59 119//59 115//59
f 114//60 116//60 120//60 118//60
f 117//1 118//1 122//1 121//1
f 119//2 123//2 124//2 120//2
f 117//61 121//61 123//61 119//61
f 118//62 120//62 124//62 122//62
f 121//1 122//1 126//1 125//1
f 123//2 127//2 128//2 124//2
f 121//63 125//63 127//63 123//63
f 122//64 124//64 128//64 126//64
f 125//1 126//1 130//1 129//1
f 127//2 131//2 132//2 128//2
f 125//65 129//65 131//65 127//65
f 126//66 128//66 132//66 130//66
